<?xml version="1.0" encoding="UTF-8" standalone="no"?>
<!DOCTYPE svg PUBLIC "-//W3C//DTD SVG 1.1//EN" "http://www.w3.org/Graphics/SVG/1.1/DTD/svg11.dtd">
<svg width="100%" height="100%" viewBox="0 0 124 50" version="1.1" xmlns="http://www.w3.org/2000/svg" xmlns:xlink="http://www.w3.org/1999/xlink" xml:space="preserve" xmlns:serif="http://www.serif.com/" style="fill-rule:evenodd;clip-rule:evenodd;stroke-linejoin:round;stroke-miterlimit:2;">
    <g transform="matrix(1,0,0,1,-483.215,-294.411)">
        <g id="logo-name" transform="matrix(1.08809,0,0,1.07588,-43.6529,-203.19)">
            <g transform="matrix(2.03635,0,0,1.07644,-52.5952,268.087)">
                <path d="M271.173,188.912C271.277,188.719 271.518,188.1 271.849,187C272.107,186.143 272.256,185.57 272.308,185.292C272.356,185.031 272.365,184.832 272.365,184.707C272.365,184.323 272.295,183.839 272.057,183.343C271.178,181.545 269.979,180.611 268.439,180.611C267.013,180.611 265.839,181.619 264.915,183.629C264.053,185.499 263.615,187.77 263.615,190.451C263.615,193.228 264.067,195.521 264.951,197.343C265.873,199.258 267.072,200.233 268.555,200.233C270.02,200.233 271.191,199.222 272.075,197.232C272.312,196.678 272.371,196.201 272.371,195.873C272.371,195.759 272.366,195.52 272.285,195.197C272.232,194.983 272.076,194.489 271.81,193.724C271.489,192.81 271.29,192.284 271.218,192.132C271.002,191.682 270.769,191.548 270.559,191.548C270.49,191.548 270.39,191.563 270.268,191.662C270.216,191.704 270.049,191.895 269.795,192.309C269.631,192.573 269.471,192.781 269.314,192.927C269.097,193.126 268.869,193.226 268.628,193.226C268.269,193.226 267.981,192.976 267.766,192.459C267.533,191.898 267.428,191.198 267.428,190.37C267.428,189.561 267.532,188.875 267.763,188.324C267.978,187.816 268.268,187.573 268.628,187.573C268.858,187.573 269.079,187.677 269.293,187.88C269.457,188.042 269.621,188.267 269.789,188.55C270.048,188.985 270.218,189.188 270.27,189.232C270.397,189.338 270.501,189.354 270.571,189.354C270.824,189.354 271.032,189.182 271.201,188.863L271.173,188.912Z" style="fill:white;fill-rule:nonzero;"/>
                <path d="M271.479,183L271.478,183C271.554,184.789 271.591,187.281 271.591,190.474C271.591,191.31 271.57,192.564 271.529,194.235C271.485,195.964 271.464,197.257 271.464,198.114C271.464,198.597 271.554,198.977 271.702,199.276C271.818,199.511 271.982,199.712 272.214,199.803C272.348,199.855 272.744,199.9 273.404,199.9C273.932,199.9 274.321,199.883 274.57,199.851C274.63,199.843 274.686,199.835 274.743,199.828L274.919,199.761C275.185,199.593 275.466,199.191 275.466,198.24C275.466,197.691 275.44,196.872 275.387,195.782C275.37,195.444 275.356,195.134 275.346,194.854C275.581,195.908 275.76,196.736 275.884,197.338C276.002,197.928 276.091,198.372 276.152,198.671L276.172,198.762C276.28,199.194 276.414,199.428 276.516,199.553C276.572,199.618 276.712,199.754 276.963,199.819C277.175,199.87 277.566,199.9 278.141,199.9C278.819,199.9 279.242,199.865 279.412,199.815C280.044,199.632 280.142,198.775 280.142,198.355C280.142,198.238 280.132,198.011 280.073,197.69C279.99,197.232 279.744,196.19 279.329,194.568L278.817,192.568C279.221,191.917 279.499,191.251 279.67,190.583C279.878,189.768 279.996,188.682 279.996,187.315C279.996,185.149 279.556,183.505 278.705,182.358C278.012,181.422 277.123,180.921 276.028,180.921C275.578,180.921 274.976,180.937 274.221,180.968C273.046,181.017 272.39,181.079 272.25,181.128C271.593,181.357 271.451,182.161 271.471,182.811L272.19,184.092C272.19,184.092 271.472,182.832 271.472,182.832L271.479,183ZM275.309,192.981C275.24,192.986 275.072,192.989 274.806,192.989C274.725,193.243 274.668,193.442 274.677,193.483C274.685,193.521 274.747,193.977 275.001,194.203C275.042,194.162 275.081,194.111 275.119,194.05C275.164,193.978 275.247,193.695 275.29,193.544L275.309,192.981ZM278.509,193.025L278.491,193.05C278.497,193.042 278.503,193.034 278.509,193.025ZM278.025,192.602C278.349,192.457 278.66,192.31 278.66,192.278L277.941,192.278L277.987,192.453L278.025,192.602ZM275.281,187.057C275.612,187.062 275.861,187.108 276.023,187.283C276.143,187.419 276.152,187.7 276.152,188.05C276.152,188.214 276.152,188.356 276.108,188.454C276.003,188.69 275.803,188.688 275.542,188.688C275.453,188.688 275.366,188.684 275.281,188.675L275.278,188.28C275.278,187.785 275.278,187.378 275.281,187.057Z" style="fill:white;fill-rule:nonzero;"/>
                <path d="M286.558,188.475L286.542,188.717C286.542,188.717 286.496,189.446 286.445,190.37C286.415,190.937 286.4,191.504 286.4,192.071C286.4,192.516 286.317,192.863 286.184,193.136C286.389,193.182 286.554,193.358 286.685,193.63C286.805,193.877 286.923,194.278 286.923,194.897C286.923,195.262 286.888,195.933 286.812,196.909C286.717,198.148 286.6,198.872 286.527,199.11L286.514,199.151C286.319,199.733 286.045,200.003 285.705,200.003C285.648,200.003 285.554,199.991 285.425,199.956C285.141,199.883 284.311,199.854 282.936,199.854C282.623,199.854 282.158,199.85 281.54,199.842C280.927,199.835 280.467,199.831 280.16,199.831C279.877,199.831 279.677,199.644 279.535,199.409C279.362,199.12 279.241,198.714 279.241,198.137C279.241,197.262 279.266,195.948 279.318,194.195C279.367,192.509 279.392,191.246 279.392,190.405C279.392,189.541 279.368,187.931 279.32,185.573C279.308,184.967 279.286,184.062 279.254,182.859L279.249,182.717C279.224,182.128 279.34,181.712 279.511,181.416C279.642,181.188 279.835,180.99 280.118,180.99C280.422,180.99 280.879,181.006 281.489,181.037C282.081,181.067 282.525,181.082 282.82,181.082C283.112,181.082 283.55,181.067 284.137,181.037C284.741,181.006 285.193,180.99 285.493,180.99C285.841,180.99 286.089,181.211 286.261,181.508C286.409,181.765 286.515,182.098 286.56,182.51C286.582,182.705 286.621,183.294 286.668,184.28C286.713,185.239 286.734,185.822 286.734,186.028C286.734,186.536 286.633,186.893 286.505,187.148C286.46,187.238 286.408,187.321 286.35,187.392C286.46,187.626 286.541,187.933 286.555,188.34L286.558,188.475Z" style="fill:white;fill-rule:nonzero;"/>
                <path d="M289.693,197.485C289.855,197.474 290.065,197.464 290.287,197.464C290.758,197.464 291.161,197.479 291.427,197.492C291.462,197.719 291.503,197.994 291.536,198.266C291.648,199.153 291.933,199.64 292.353,199.803C292.547,199.875 292.965,199.923 293.615,199.923C294.351,199.923 294.789,199.856 294.93,199.785C295.449,199.51 295.616,198.878 295.616,198.183C295.616,198.098 295.601,197.817 295.523,197.363C295.367,196.464 294.901,194.1 294.123,190.273C293.153,185.512 292.567,182.726 292.366,181.914C292.129,180.985 291.779,180.749 291.502,180.749C291.386,180.749 291.211,180.763 290.977,180.792C290.786,180.817 290.641,180.83 290.542,180.83C290.443,180.83 290.293,180.811 290.093,180.777C289.835,180.734 289.645,180.715 289.522,180.715C289.267,180.715 288.857,180.958 288.666,182.103C288.582,182.602 288.047,185.373 287.062,190.416C286.323,194.206 285.88,196.544 285.733,197.43C285.659,197.875 285.645,198.148 285.645,198.229C285.645,198.66 285.726,199.088 285.967,199.433C286.053,199.557 286.185,199.694 286.375,199.78C286.562,199.866 286.868,199.923 287.293,199.923C288.172,199.923 288.689,199.863 288.843,199.795C289.017,199.71 289.182,199.541 289.327,199.21C289.441,198.947 289.57,198.471 289.659,197.74C289.669,197.656 289.681,197.569 289.693,197.485Z" style="fill:white;fill-rule:nonzero;"/>
                <g transform="matrix(1,0,0,1,-0.982152,0)">
                    <path d="M299.748,199.569L299.719,199.602C299.926,199.385 300.144,198.963 300.144,198.137C300.144,197.221 300.124,195.843 300.085,194.004C300.047,192.213 300.028,190.872 300.028,189.98C300.028,189.421 300.035,188.549 300.048,187.362C300.681,187.426 301.056,187.458 301.173,187.458C301.438,187.458 301.625,187.274 301.757,187.046C301.913,186.778 302.026,186.403 302.026,185.867C302.026,185.643 302.012,185.305 301.98,184.853C301.96,184.561 301.947,184.34 301.947,184.19C301.947,184.031 301.951,183.761 301.959,183.38C301.968,182.99 301.972,182.686 301.972,182.466L301.97,182.387C301.947,181.644 301.758,181.306 301.688,181.197C301.634,181.111 301.45,180.853 301.088,180.853C301.084,180.853 300.8,180.89 300.237,180.971C299.284,181.113 298.631,181.186 298.276,181.186C297.034,181.186 296.095,181.111 295.46,180.956L295.282,180.933C295.092,180.933 294.903,181.048 294.735,181.366C294.634,181.557 294.467,182.076 294.42,183.029C294.404,183.391 294.39,183.741 294.378,184.092C294.367,184.218 294.334,184.489 294.283,184.909C294.207,185.571 294.18,185.965 294.18,186.097C294.18,186.546 294.271,186.894 294.423,187.163C294.536,187.363 294.715,187.573 294.997,187.573C295.333,187.573 295.746,187.538 296.237,187.466C296.254,188.704 296.263,189.542 296.263,189.98C296.263,190.871 296.243,192.207 296.203,193.989C296.162,195.822 296.142,197.197 296.142,198.114C296.142,198.6 296.232,198.974 296.37,199.264C296.491,199.519 296.662,199.728 296.905,199.81C297.154,199.883 297.556,199.923 298.131,199.923C298.639,199.923 299.025,199.886 299.29,199.82C299.543,199.762 299.69,199.632 299.748,199.569Z" style="fill:white;fill-rule:nonzero;"/>
                </g>
                <g transform="matrix(1,0,0,1,-0.982152,0)">
                    <path d="M301.076,198.114C301.076,198.114 301.08,197.996 301.08,197.996C301.08,197.996 301.103,197.187 301.132,196.03C301.204,192.959 301.24,190.943 301.24,189.98C301.24,189.17 301.226,187.956 301.198,186.337C301.169,184.678 301.155,183.434 301.155,182.604C301.155,182.071 301.265,181.698 301.412,181.431C301.549,181.184 301.741,180.99 302.014,180.99C302.148,180.99 302.348,181.002 302.617,181.026C302.854,181.048 303.032,181.059 303.15,181.059C303.268,181.059 303.441,181.048 303.67,181.027C303.931,181.002 304.128,180.99 304.261,180.99C304.6,180.99 304.814,181.252 304.95,181.544C305.075,181.812 305.157,182.157 305.157,182.604C305.157,183.44 305.134,184.694 305.086,186.365C305.041,187.972 305.017,189.177 305.017,189.98C305.017,190.876 305.03,192.224 305.054,194.024C305.078,195.854 305.09,197.225 305.09,198.137C305.09,198.98 304.866,199.403 304.666,199.614C304.656,199.623 304.647,199.633 304.638,199.641C304.617,199.661 304.492,199.763 304.247,199.82C304.247,199.821 304.247,199.821 304.246,199.821C303.961,199.887 303.58,199.923 303.101,199.923C302.436,199.923 302.013,199.874 301.831,199.805C301.829,199.804 301.828,199.803 301.826,199.803C301.594,199.712 301.43,199.511 301.314,199.276C301.166,198.977 301.076,198.597 301.076,198.114Z" style="fill:white;fill-rule:nonzero;"/>
                </g>
                <g transform="matrix(1,0,0,1,-0.982152,0)">
                    <path d="M310.007,181.19L310.007,181.187C309.811,181.31 309.46,181.71 309.46,182.823C309.46,183.386 309.464,184.233 309.472,185.363C309.48,186.425 309.484,187.233 309.484,187.787C309.457,187.93 309.259,188.941 308.986,190.006C308.951,190.141 308.917,190.273 308.883,190.402C308.583,189.207 308.391,188.351 308.361,188.213C308.363,187.616 308.386,186.745 308.429,185.601C308.477,184.314 308.5,183.349 308.5,182.708C308.5,182.152 308.38,181.762 308.206,181.485C308.075,181.277 307.89,181.105 307.629,181.105C307.389,181.105 307.028,181.086 306.547,181.049C306.04,181.01 305.662,180.99 305.412,180.99C305.146,180.99 304.936,181.189 304.776,181.562C304.674,181.799 304.571,182.185 304.571,182.777C304.571,183.371 304.56,184.265 304.538,185.458C304.516,186.693 304.505,187.618 304.505,188.234C304.505,188.423 304.537,188.812 304.651,189.375C304.809,190.162 305.151,191.558 305.679,193.563C306.147,195.303 306.611,197.029 307.072,198.752C307.252,199.405 307.503,199.699 307.76,199.802C307.849,199.837 308.21,199.877 308.844,199.877C309.302,199.877 309.641,199.859 309.859,199.827C310.17,199.774 310.328,199.591 310.376,199.526C310.42,199.466 310.561,199.245 310.688,198.73C311.274,196.571 311.725,194.951 312.037,193.875L312.05,193.828C312.626,191.65 312.998,190.113 313.171,189.219C313.285,188.627 313.322,188.208 313.322,187.981C313.322,187.388 313.327,186.501 313.337,185.32C313.348,184.119 313.353,183.222 313.353,182.627C313.353,182.185 313.274,181.845 313.157,181.579C313.018,181.264 312.798,180.99 312.451,180.99C312.22,180.99 311.872,181.012 311.404,181.055C310.969,181.096 310.644,181.117 310.429,181.117L310.236,181.117C310.142,181.117 310.067,181.143 310.007,181.19Z" style="fill:white;fill-rule:nonzero;"/>
                </g>
                <g transform="matrix(1,0,0,1,-0.982152,0)">
                    <path d="M319.981,188.475L319.965,188.717C319.965,188.717 319.919,189.446 319.868,190.37C319.839,190.937 319.824,191.504 319.824,192.071C319.824,192.516 319.74,192.863 319.607,193.136C319.812,193.182 319.977,193.358 320.109,193.63C320.229,193.877 320.346,194.278 320.346,194.897C320.346,195.262 320.311,195.933 320.235,196.909C320.141,198.148 320.024,198.872 319.95,199.11L319.937,199.151C319.743,199.733 319.469,200.003 319.128,200.003C319.072,200.003 318.977,199.991 318.848,199.956C318.564,199.883 317.734,199.854 316.359,199.854C316.046,199.854 315.581,199.85 314.964,199.842C314.35,199.835 313.89,199.831 313.584,199.831C313.301,199.831 313.1,199.644 312.958,199.409C312.785,199.12 312.664,198.714 312.664,198.137C312.664,197.262 312.689,195.948 312.741,194.195C312.79,192.509 312.816,191.246 312.816,190.405C312.816,189.541 312.791,187.931 312.743,185.573C312.731,184.967 312.709,184.062 312.677,182.859L312.672,182.717C312.647,182.128 312.764,181.712 312.934,181.416C313.065,181.188 313.258,180.99 313.541,180.99C313.845,180.99 314.302,181.006 314.912,181.037C315.504,181.067 315.948,181.082 316.244,181.082C316.535,181.082 316.974,181.067 317.56,181.037C318.164,181.006 318.616,180.99 318.916,180.99C319.265,180.99 319.512,181.211 319.684,181.508C319.832,181.765 319.939,182.098 319.983,182.51C320.006,182.705 320.044,183.294 320.091,184.28C320.137,185.239 320.158,185.822 320.158,186.028C320.158,186.536 320.057,186.893 319.929,187.148C319.883,187.238 319.832,187.321 319.773,187.392C319.883,187.626 319.964,187.933 319.979,188.34L319.981,188.475Z" style="fill:white;fill-rule:nonzero;"/>
                </g>
                <path d="M263.799,206.361L263.805,206.526C263.913,209.139 263.967,211.631 263.967,214.002C263.967,214.848 263.96,216.118 263.946,217.812C263.931,219.526 263.924,220.81 263.924,221.665C263.924,222.215 264.034,222.602 264.179,222.877C264.324,223.152 264.529,223.359 264.82,223.359C265.062,223.359 265.426,223.373 265.911,223.399C266.414,223.426 266.791,223.44 267.043,223.44C267.327,223.44 267.527,223.225 267.67,222.93C267.792,222.677 267.89,222.321 267.89,221.814C267.89,221.44 267.871,220.875 267.831,220.118C267.823,219.949 267.815,219.79 267.808,219.643L268.014,219.664C268.357,219.7 268.615,219.718 268.786,219.718C269.989,219.718 270.925,218.928 271.61,217.414C272.228,216.033 272.554,214.246 272.554,212.026C272.554,209.815 272.174,208.036 271.441,206.669C270.728,205.349 269.798,204.63 268.637,204.565C268.046,204.534 267.43,204.519 266.787,204.519C265.665,204.519 264.939,204.565 264.609,204.644C264.301,204.717 264.114,204.969 264.003,205.206C263.853,205.522 263.779,205.903 263.799,206.361ZM267.703,213.347C267.694,212.929 267.689,212.611 267.689,212.394C267.689,211.842 267.694,211.321 267.699,210.91C267.803,210.901 267.918,210.894 268.032,210.894C268.258,210.894 268.438,210.933 268.551,211.152C268.67,211.383 268.692,211.749 268.692,212.21C268.692,212.614 268.676,212.937 268.57,213.139C268.467,213.337 268.3,213.365 268.093,213.365C267.957,213.365 267.822,213.358 267.703,213.347Z" style="fill:white;fill-rule:nonzero;"/>
                <path d="M281.697,213.956C281.697,211.221 281.221,208.91 280.281,207.016C279.31,205.071 278.1,204.094 276.647,204.094C275.185,204.094 273.973,205.073 273.008,207.015C272.072,208.892 271.598,211.203 271.598,213.956C271.598,216.703 272.072,219.007 273.009,220.877C273.974,222.81 275.185,223.784 276.647,223.784C278.118,223.784 279.331,222.816 280.291,220.902C281.224,219.03 281.697,216.719 281.697,213.956ZM277.956,213.933C277.956,214.688 277.825,215.351 277.563,215.922C277.31,216.467 277.007,216.754 276.647,216.754C276.26,216.754 275.942,216.508 275.701,215.989C275.452,215.449 275.338,214.766 275.338,213.956C275.338,213.196 275.473,212.524 275.74,211.939C275.99,211.39 276.289,211.101 276.647,211.101C277.025,211.101 277.336,211.362 277.578,211.893C277.835,212.453 277.956,213.136 277.956,213.933Z" style="fill:white;fill-rule:nonzero;"/>
                <path d="M281.002,221.642C281.002,221.642 281.006,221.525 281.006,221.525C281.006,221.525 281.028,220.715 281.057,219.558C281.129,216.488 281.166,214.471 281.166,213.508C281.166,212.699 281.152,211.484 281.124,209.865C281.095,208.206 281.081,206.962 281.081,206.133C281.081,205.6 281.19,205.226 281.338,204.96C281.474,204.712 281.666,204.519 281.94,204.519C282.073,204.519 282.274,204.53 282.542,204.555C282.78,204.576 282.958,204.588 283.075,204.588C283.193,204.588 283.366,204.576 283.596,204.555C283.856,204.53 284.053,204.519 284.187,204.519C284.526,204.519 284.74,204.781 284.875,205.072C285,205.341 285.082,205.685 285.082,206.133C285.082,206.968 285.059,208.222 285.012,209.894C284.966,211.5 284.943,212.705 284.943,213.508C284.943,214.404 284.955,215.752 284.979,217.552C285.003,219.383 285.016,220.754 285.016,221.665C285.016,222.509 284.792,222.931 284.591,223.142L284.563,223.17C284.543,223.189 284.417,223.291 284.171,223.349C283.886,223.416 283.505,223.451 283.027,223.451C282.362,223.451 281.938,223.402 281.752,223.331C281.519,223.24 281.356,223.039 281.24,222.805C281.092,222.505 281.002,222.125 281.002,221.642Z" style="fill:white;fill-rule:nonzero;"/>
                <path d="M288.454,217.234L288.537,217.444C289.56,220 290.214,221.643 290.505,222.384C290.806,223.136 291.13,223.313 291.344,223.313C291.437,223.313 291.576,223.328 291.762,223.355C291.998,223.39 292.174,223.405 292.291,223.405C292.395,223.405 292.552,223.398 292.761,223.381C292.944,223.367 293.081,223.359 293.172,223.359C293.454,223.359 293.653,223.165 293.794,222.917C293.953,222.638 294.068,222.246 294.068,221.688C294.068,221.688 294.068,214.117 294.068,214.117C294.068,213.249 294.087,211.952 294.125,210.227C294.164,208.452 294.183,207.122 294.183,206.236C294.183,205.639 294.068,205.255 293.952,205.016C293.799,204.702 293.602,204.519 293.348,204.519C293.099,204.519 292.722,204.538 292.219,204.577C291.742,204.615 291.386,204.634 291.15,204.634C290.885,204.634 290.679,204.828 290.52,205.18C290.411,205.422 290.303,205.816 290.303,206.42C290.303,207.248 290.326,208.487 290.373,210.136C290.381,210.391 290.388,210.636 290.394,210.87L288.221,205.238C287.905,204.426 287.566,204.289 287.415,204.289C287.266,204.289 287.064,204.327 286.808,204.414C286.595,204.489 286.456,204.535 286.385,204.548C286.069,204.604 285.803,204.634 285.587,204.634C285.263,204.634 285.052,204.84 284.923,205.047C284.734,205.349 284.63,205.744 284.63,206.248C284.63,207.133 284.65,208.466 284.689,210.245C284.727,211.973 284.746,213.272 284.746,214.14C284.746,214.96 284.725,216.191 284.683,217.831C284.64,219.53 284.618,220.8 284.618,221.642C284.618,222.185 284.722,222.568 284.856,222.839C285.006,223.141 285.216,223.359 285.514,223.359L287.615,223.359C287.858,223.359 288.045,223.202 288.191,222.964C288.355,222.695 288.499,222.268 288.499,221.596C288.499,220.699 288.485,219.354 288.459,217.56L288.454,217.234Z" style="fill:white;fill-rule:nonzero;"/>
                <path d="M298.825,223.097L298.796,223.131C299.003,222.913 299.221,222.491 299.221,221.665C299.221,220.749 299.201,219.372 299.162,217.532C299.124,215.741 299.105,214.4 299.105,213.508C299.105,212.95 299.112,212.077 299.125,210.89C299.758,210.955 300.133,210.986 300.25,210.986C300.515,210.986 300.702,210.803 300.834,210.575C300.99,210.307 301.103,209.931 301.103,209.395C301.103,209.172 301.089,208.834 301.057,208.382C301.037,208.09 301.024,207.869 301.024,207.718C301.024,207.56 301.028,207.29 301.036,206.908C301.044,206.519 301.049,206.214 301.049,205.995L301.047,205.915C301.024,205.173 300.835,204.834 300.765,204.725C300.711,204.64 300.527,204.381 300.165,204.381C300.161,204.381 299.877,204.418 299.314,204.5C298.361,204.641 297.708,204.714 297.353,204.714C296.111,204.714 295.172,204.64 294.537,204.484L294.359,204.461C294.169,204.461 293.98,204.577 293.812,204.894C293.711,205.085 293.544,205.604 293.497,206.558C293.481,206.919 293.467,207.27 293.455,207.62C293.443,207.746 293.411,208.017 293.36,208.437C293.284,209.099 293.257,209.493 293.257,209.625C293.257,210.074 293.348,210.422 293.5,210.692C293.613,210.892 293.792,211.101 294.074,211.101C294.41,211.101 294.823,211.066 295.314,210.995C295.331,212.232 295.34,213.07 295.34,213.508C295.34,214.399 295.32,215.736 295.28,217.518C295.239,219.351 295.219,220.726 295.219,221.642C295.219,222.128 295.308,222.503 295.447,222.793C295.568,223.047 295.739,223.256 295.982,223.338C296.23,223.411 296.633,223.451 297.208,223.451C297.716,223.451 298.102,223.415 298.367,223.349C298.62,223.29 298.767,223.16 298.825,223.097Z" style="fill:white;fill-rule:nonzero;"/>
            </g>
            <g transform="matrix(2.03635,0,0,1.07644,-52.5952,268.087)">
                <path d="M271.652,195.873C271.652,195.996 271.609,196.157 271.524,196.356C270.779,198.033 269.79,198.872 268.555,198.872C267.292,198.872 266.267,198.056 265.482,196.425C264.717,194.847 264.334,192.856 264.334,190.451C264.334,188.123 264.709,186.147 265.458,184.523C266.239,182.823 267.233,181.972 268.439,181.972C269.751,181.972 270.779,182.734 271.524,184.259C271.605,184.427 271.646,184.576 271.646,184.707C271.646,184.852 271.505,185.392 271.224,186.327C270.942,187.261 270.765,187.786 270.692,187.9C270.66,187.962 270.62,187.992 270.571,187.992C270.551,187.992 270.45,187.839 270.267,187.533C270.049,187.165 269.834,186.878 269.624,186.671C269.304,186.365 268.972,186.212 268.628,186.212C268.032,186.212 267.557,186.633 267.2,187.475C266.873,188.257 266.709,189.222 266.709,190.37C266.709,191.535 266.873,192.511 267.2,193.3C267.557,194.158 268.032,194.587 268.628,194.587C268.98,194.587 269.314,194.441 269.63,194.15C269.836,193.959 270.047,193.691 270.261,193.346C270.439,193.055 270.539,192.909 270.559,192.909C270.599,192.909 270.64,192.952 270.68,193.036C270.745,193.174 270.921,193.652 271.209,194.472C271.504,195.322 271.652,195.789 271.652,195.873Z" style="fill-rule:nonzero;"/>
                <path d="M279.422,198.355C279.422,198.409 279.382,198.447 279.301,198.47C279.147,198.516 278.761,198.539 278.141,198.539C277.611,198.539 277.25,198.516 277.06,198.47C276.971,198.447 276.92,198.428 276.908,198.412C276.884,198.389 276.856,198.313 276.823,198.183C276.762,197.884 276.673,197.44 276.556,196.85C276.398,196.084 276.151,194.954 275.815,193.461C275.742,193.162 275.574,192.998 275.311,192.967C275.433,192.982 275.224,192.99 274.686,192.99C274.625,192.99 274.594,193.185 274.594,193.576C274.594,194.097 274.62,194.874 274.67,195.908C274.721,196.942 274.746,197.719 274.746,198.24C274.746,198.37 274.728,198.447 274.692,198.47C274.635,198.478 274.578,198.485 274.522,198.493C274.283,198.523 273.91,198.539 273.404,198.539C272.825,198.539 272.477,198.516 272.36,198.47C272.242,198.424 272.183,198.305 272.183,198.114C272.183,197.271 272.205,196 272.247,194.3C272.29,192.599 272.311,191.324 272.311,190.474C272.311,187.234 272.273,184.707 272.196,182.892L272.19,182.731C272.185,182.6 272.249,182.512 272.381,182.466C272.512,182.42 273.131,182.375 274.236,182.329C274.985,182.298 275.582,182.283 276.028,182.283C276.951,182.283 277.704,182.677 278.287,183.466C278.947,184.354 279.277,185.637 279.277,187.315C279.277,188.433 279.192,189.325 279.022,189.991C278.852,190.658 278.538,191.305 278.08,191.933C277.987,192.055 277.941,192.17 277.941,192.278C277.941,192.27 278.188,193.231 278.682,195.161C279.175,197.091 279.422,198.156 279.422,198.355ZM276.872,188.05C276.872,187.115 276.71,186.468 276.386,186.108C276.135,185.833 275.742,185.695 275.208,185.695C274.823,185.695 274.619,185.806 274.594,186.028C274.57,186.288 274.558,187.039 274.558,188.28C274.558,188.456 274.56,188.716 274.564,189.061C274.568,189.405 274.57,189.662 274.57,189.831C274.57,189.869 274.635,189.907 274.764,189.945C275.011,190.014 275.271,190.049 275.542,190.049C276.428,190.049 276.872,189.382 276.872,188.05Z" style="fill-rule:nonzero;"/>
                <path d="M286.203,194.897C286.203,195.226 286.169,195.831 286.1,196.712C286.027,197.669 285.962,198.24 285.905,198.424C285.857,198.569 285.79,198.642 285.705,198.642C285.669,198.642 285.608,198.631 285.523,198.608C285.227,198.531 284.365,198.493 282.936,198.493C282.624,198.493 282.16,198.489 281.545,198.481C280.93,198.474 280.468,198.47 280.16,198.47C280.027,198.47 279.96,198.359 279.96,198.137C279.96,197.279 279.985,195.99 280.036,194.271C280.087,192.551 280.112,191.263 280.112,190.405C280.112,189.532 280.088,187.904 280.039,185.522C280.027,184.91 280.005,183.994 279.972,182.777L279.966,182.616C279.958,182.44 280.009,182.352 280.118,182.352C280.418,182.352 280.868,182.367 281.469,182.398C282.07,182.428 282.521,182.443 282.82,182.443C283.116,182.443 283.561,182.428 284.156,182.398C284.752,182.367 285.197,182.352 285.493,182.352C285.703,182.352 285.825,182.501 285.857,182.8C285.877,182.976 285.909,183.51 285.951,184.402C285.994,185.295 286.015,185.836 286.015,186.028C286.015,186.189 285.974,186.269 285.893,186.269C285.869,186.269 285.827,186.265 285.766,186.258C284.689,186.089 283.721,186.005 282.863,186.005C282.648,186.005 282.517,186.101 282.468,186.292C282.448,186.384 282.438,186.679 282.438,187.177C282.438,187.698 282.478,188.042 282.559,188.211C282.628,188.356 282.76,188.429 282.954,188.429C282.995,188.429 283.073,188.423 283.191,188.412C283.308,188.4 283.405,188.394 283.482,188.394C283.992,188.394 284.509,188.368 285.031,188.314C285.076,188.306 285.187,188.287 285.365,188.257C285.503,188.226 285.612,188.211 285.693,188.211C285.79,188.211 285.839,188.299 285.839,188.475C285.839,188.314 285.802,188.9 285.729,190.233C285.697,190.845 285.681,191.458 285.681,192.071C285.681,192.224 285.622,192.301 285.505,192.301C285.505,192.301 285.322,192.262 284.958,192.186C284.727,192.14 284.201,192.117 283.379,192.117L282.735,192.117C282.569,192.117 282.472,192.193 282.444,192.347C282.44,192.385 282.438,192.622 282.438,193.059C282.438,193.641 282.458,194.016 282.499,194.185C282.567,194.476 282.826,194.648 283.276,194.702C283.268,194.702 283.563,194.702 284.163,194.702C284.377,194.702 284.696,194.665 285.119,194.593C285.542,194.52 285.859,194.483 286.069,194.483C286.159,194.483 286.203,194.621 286.203,194.897Z" style="fill-rule:nonzero;"/>
                <path d="M294.897,198.183C294.897,198.321 294.846,198.416 294.745,198.47C294.623,198.531 294.247,198.562 293.615,198.562C293.036,198.562 292.664,198.531 292.498,198.47C292.36,198.416 292.273,198.244 292.237,197.953C292.099,196.85 291.992,196.26 291.915,196.184C291.85,196.13 291.308,196.103 290.287,196.103C289.599,196.103 289.233,196.138 289.188,196.207C289.119,196.329 289.042,196.739 288.957,197.436C288.88,198.072 288.787,198.416 288.678,198.47C288.54,198.531 288.079,198.562 287.293,198.562C286.674,198.562 286.364,198.451 286.364,198.229C286.364,198.029 286.822,195.582 287.737,190.887C288.729,185.81 289.267,183.018 289.352,182.512C289.401,182.221 289.457,182.076 289.522,182.076C289.631,182.076 289.8,182.095 290.029,182.133C290.258,182.172 290.429,182.191 290.542,182.191C290.652,182.191 290.813,182.177 291.025,182.15C291.238,182.124 291.397,182.11 291.502,182.11C291.579,182.11 291.65,182.237 291.714,182.489C291.913,183.294 292.492,186.051 293.451,190.761C294.415,195.502 294.897,197.976 294.897,198.183ZM290.591,187.717C290.506,188.054 290.362,188.785 290.16,189.911C289.941,191.106 289.832,191.807 289.832,192.013C289.832,192.151 289.953,192.228 290.196,192.243C290.322,192.258 290.528,192.266 290.816,192.266C291.083,192.266 291.231,192.205 291.259,192.082C291.267,192.044 291.271,191.99 291.271,191.921C291.271,191.669 291.178,190.972 290.992,189.831C290.81,188.728 290.676,188.023 290.591,187.717Z" style="fill-rule:nonzero;"/>
                <g transform="matrix(1,0,0,1,-0.982152,0)">
                    <path d="M301.307,185.867C301.307,186.02 301.262,186.097 301.173,186.097C301.019,186.097 300.41,186.039 299.345,185.924C299.321,187.862 299.309,189.214 299.309,189.98C299.309,190.884 299.328,192.243 299.366,194.058C299.405,195.873 299.424,197.233 299.424,198.137C299.424,198.282 299.406,198.374 299.37,198.412C299.357,198.428 299.301,198.447 299.199,198.47C298.957,198.531 298.6,198.562 298.131,198.562C297.608,198.562 297.242,198.531 297.031,198.47C296.918,198.432 296.861,198.313 296.861,198.114C296.861,197.21 296.882,195.854 296.922,194.047C296.963,192.239 296.983,190.884 296.983,189.98C296.983,189.382 296.967,188.05 296.934,185.982C296.125,186.135 295.479,186.212 294.997,186.212C294.932,186.212 294.9,186.173 294.9,186.097C294.9,185.997 294.928,185.702 294.985,185.212C295.05,184.676 295.086,184.351 295.094,184.236C295.106,183.876 295.12,183.516 295.137,183.156C295.165,182.581 295.214,182.294 295.282,182.294C295.291,182.294 295.319,182.298 295.367,182.306C296.023,182.466 296.993,182.547 298.276,182.547C298.641,182.547 299.313,182.474 300.293,182.329C300.819,182.252 301.084,182.214 301.088,182.214C301.169,182.214 301.216,182.223 301.228,182.242C301.24,182.262 301.248,182.336 301.252,182.466C301.252,182.673 301.248,182.96 301.24,183.328C301.232,183.734 301.228,184.021 301.228,184.19C301.228,184.381 301.241,184.663 301.267,185.034C301.294,185.406 301.307,185.683 301.307,185.867Z" style="fill-rule:nonzero;"/>
                </g>
                <g transform="matrix(1,0,0,1,-0.982152,0)">
                    <path d="M304.298,189.98C304.298,190.884 304.31,192.243 304.334,194.058C304.359,195.873 304.371,197.233 304.371,198.137C304.371,198.29 304.353,198.386 304.316,198.424C304.308,198.432 304.255,198.447 304.158,198.47C303.895,198.531 303.543,198.562 303.101,198.562C302.51,198.562 302.134,198.531 301.972,198.47C301.855,198.424 301.796,198.305 301.796,198.114C301.796,198.236 301.814,197.562 301.85,196.092C301.923,192.99 301.96,190.953 301.96,189.98C301.96,189.16 301.946,187.931 301.917,186.292C301.889,184.653 301.875,183.424 301.875,182.604C301.875,182.436 301.921,182.352 302.014,182.352C302.14,182.352 302.329,182.363 302.582,182.386C302.835,182.409 303.025,182.42 303.15,182.42C303.276,182.42 303.461,182.409 303.706,182.386C303.951,182.363 304.136,182.352 304.261,182.352C304.379,182.352 304.438,182.436 304.438,182.604C304.438,183.424 304.414,184.653 304.368,186.292C304.321,187.931 304.298,189.16 304.298,189.98Z" style="fill-rule:nonzero;"/>
                </g>
                <g transform="matrix(1,0,0,1,-0.982152,0)">
                    <path d="M308.844,198.516C308.297,198.516 307.985,198.5 307.908,198.47C307.831,198.439 307.767,198.328 307.714,198.137C307.252,196.413 306.789,194.686 306.323,192.955C305.591,190.175 305.224,188.601 305.224,188.234C305.224,187.629 305.235,186.719 305.258,185.505C305.28,184.291 305.291,183.382 305.291,182.777C305.291,182.493 305.331,182.352 305.412,182.352C305.655,182.352 306.024,182.371 306.518,182.409C307.012,182.447 307.382,182.466 307.629,182.466C307.73,182.466 307.781,182.547 307.781,182.708C307.781,183.328 307.758,184.261 307.711,185.505C307.664,186.75 307.641,187.682 307.641,188.303C307.641,188.777 308.052,190.474 308.874,193.392C309.097,192.634 309.35,191.703 309.633,190.6C310.014,189.114 310.204,188.203 310.204,187.866C310.204,187.307 310.2,186.466 310.192,185.344C310.184,184.222 310.18,183.382 310.18,182.823C310.18,182.616 310.198,182.501 310.234,182.478L310.429,182.478C310.651,182.478 310.988,182.457 311.44,182.415C311.891,182.373 312.228,182.352 312.451,182.352C312.572,182.352 312.633,182.443 312.633,182.627C312.633,183.217 312.628,184.107 312.618,185.298C312.608,186.489 312.603,187.383 312.603,187.981C312.603,188.456 312.204,190.202 311.406,193.22C311.091,194.307 310.635,195.946 310.04,198.137C310,198.305 309.972,198.399 309.958,198.418C309.944,198.437 309.892,198.455 309.803,198.47C309.597,198.5 309.277,198.516 308.844,198.516Z" style="fill-rule:nonzero;"/>
                </g>
                <g transform="matrix(1,0,0,1,-0.982152,0)">
                    <path d="M319.626,194.897C319.626,195.226 319.592,195.831 319.523,196.712C319.45,197.669 319.385,198.24 319.329,198.424C319.28,198.569 319.213,198.642 319.128,198.642C319.092,198.642 319.031,198.631 318.946,198.608C318.651,198.531 317.788,198.493 316.359,198.493C316.047,198.493 315.584,198.489 314.968,198.481C314.353,198.474 313.891,198.47 313.584,198.47C313.45,198.47 313.383,198.359 313.383,198.137C313.383,197.279 313.409,195.99 313.459,194.271C313.51,192.551 313.535,191.263 313.535,190.405C313.535,189.532 313.511,187.904 313.462,185.522C313.45,184.91 313.428,183.994 313.395,182.777L313.389,182.616C313.381,182.44 313.432,182.352 313.541,182.352C313.841,182.352 314.291,182.367 314.892,182.398C315.494,182.428 315.944,182.443 316.244,182.443C316.539,182.443 316.985,182.428 317.58,182.398C318.175,182.367 318.62,182.352 318.916,182.352C319.126,182.352 319.248,182.501 319.28,182.8C319.3,182.976 319.332,183.51 319.374,184.402C319.417,185.295 319.438,185.836 319.438,186.028C319.438,186.189 319.398,186.269 319.317,186.269C319.292,186.269 319.25,186.265 319.189,186.258C318.112,186.089 317.144,186.005 316.286,186.005C316.072,186.005 315.94,186.101 315.891,186.292C315.871,186.384 315.861,186.679 315.861,187.177C315.861,187.698 315.902,188.042 315.983,188.211C316.051,188.356 316.183,188.429 316.377,188.429C316.418,188.429 316.497,188.423 316.614,188.412C316.732,188.4 316.829,188.394 316.906,188.394C317.416,188.394 317.932,188.368 318.454,188.314C318.499,188.306 318.61,188.287 318.788,188.257C318.926,188.226 319.035,188.211 319.116,188.211C319.213,188.211 319.262,188.299 319.262,188.475C319.262,188.314 319.226,188.9 319.153,190.233C319.12,190.845 319.104,191.458 319.104,192.071C319.104,192.224 319.045,192.301 318.928,192.301C318.928,192.301 318.746,192.262 318.381,192.186C318.151,192.14 317.624,192.117 316.802,192.117L316.159,192.117C315.993,192.117 315.895,192.193 315.867,192.347C315.863,192.385 315.861,192.622 315.861,193.059C315.861,193.641 315.881,194.016 315.922,194.185C315.991,194.476 316.25,194.648 316.699,194.702C316.691,194.702 316.987,194.702 317.586,194.702C317.8,194.702 318.119,194.665 318.542,194.593C318.965,194.52 319.282,194.483 319.493,194.483C319.582,194.483 319.626,194.621 319.626,194.897Z" style="fill-rule:nonzero;"/>
                </g>
                <path d="M271.834,212.026C271.834,213.88 271.577,215.381 271.063,216.53C270.512,217.748 269.753,218.356 268.786,218.356C268.624,218.356 268.38,218.339 268.054,218.305C267.728,218.27 267.484,218.253 267.322,218.253C267.148,218.253 267.061,218.395 267.061,218.678C267.061,219.03 267.079,219.555 267.115,220.252C267.152,220.949 267.17,221.47 267.17,221.814C267.17,221.991 267.128,222.079 267.043,222.079C266.796,222.079 266.425,222.065 265.931,222.038C265.437,222.012 265.067,221.998 264.82,221.998C264.702,221.998 264.644,221.887 264.644,221.665C264.644,220.815 264.651,219.538 264.665,217.834C264.679,216.13 264.686,214.852 264.686,214.002C264.686,211.597 264.632,209.07 264.522,206.42L264.516,206.259C264.508,206.114 264.569,206.025 264.698,205.995C265.014,205.918 265.711,205.88 266.787,205.88C267.423,205.88 268.032,205.895 268.615,205.926C269.575,205.979 270.348,206.55 270.935,207.638C271.535,208.756 271.834,210.219 271.834,212.026ZM269.411,212.21C269.411,210.426 268.952,209.533 268.032,209.533C267.385,209.533 267.045,209.602 267.012,209.74C266.984,209.84 266.97,210.724 266.97,212.394C266.97,212.631 266.975,212.982 266.985,213.445C266.995,213.908 267,214.259 267,214.496C267,214.649 267.364,214.726 268.093,214.726C268.972,214.726 269.411,213.887 269.411,212.21Z" style="fill-rule:nonzero;"/>
                <path d="M280.977,213.956C280.977,216.346 280.574,218.349 279.769,219.965C278.947,221.604 277.906,222.423 276.647,222.423C275.396,222.423 274.358,221.596 273.532,219.942C272.722,218.326 272.317,216.331 272.317,213.956C272.317,211.574 272.722,209.572 273.532,207.948C274.358,206.286 275.396,205.455 276.647,205.455C277.89,205.455 278.926,206.286 279.756,207.948C280.57,209.587 280.977,211.59 280.977,213.956ZM278.675,213.933C278.675,212.784 278.491,211.808 278.123,211.004C277.738,210.161 277.246,209.74 276.647,209.74C276.076,209.74 275.592,210.177 275.196,211.05C274.811,211.892 274.619,212.861 274.619,213.956C274.619,215.128 274.799,216.105 275.159,216.886C275.54,217.705 276.036,218.115 276.647,218.115C277.218,218.115 277.704,217.682 278.105,216.817C278.485,215.99 278.675,215.029 278.675,213.933Z" style="fill-rule:nonzero;"/>
                <path d="M284.223,213.508C284.223,214.412 284.235,215.771 284.26,217.587C284.284,219.402 284.296,220.761 284.296,221.665C284.296,221.818 284.278,221.914 284.241,221.952C284.233,221.96 284.181,221.975 284.084,221.998C283.82,222.06 283.468,222.09 283.027,222.09C282.436,222.09 282.059,222.06 281.897,221.998C281.78,221.952 281.721,221.834 281.721,221.642C281.721,221.765 281.739,221.091 281.776,219.62C281.849,216.518 281.885,214.481 281.885,213.508C281.885,212.689 281.871,211.459 281.843,209.82C281.814,208.181 281.8,206.952 281.8,206.133C281.8,205.964 281.847,205.88 281.94,205.88C282.065,205.88 282.255,205.891 282.508,205.914C282.761,205.937 282.95,205.949 283.075,205.949C283.201,205.949 283.386,205.937 283.631,205.914C283.876,205.891 284.061,205.88 284.187,205.88C284.304,205.88 284.363,205.964 284.363,206.133C284.363,206.952 284.34,208.181 284.293,209.82C284.247,211.459 284.223,212.689 284.223,213.508Z" style="fill-rule:nonzero;"/>
                <path d="M293.463,206.236C293.463,207.109 293.444,208.421 293.406,210.171C293.367,211.921 293.348,213.236 293.348,214.117L293.348,221.688C293.348,221.895 293.289,221.998 293.172,221.998C293.075,221.998 292.928,222.006 292.732,222.021C292.535,222.037 292.389,222.044 292.291,222.044C292.186,222.044 292.028,222.029 291.818,221.998C291.607,221.968 291.449,221.952 291.344,221.952C291.271,221.952 291.184,221.826 291.083,221.573C290.791,220.83 290.135,219.184 289.115,216.633C288.836,215.921 288.411,214.872 287.84,213.485C287.824,213.439 287.793,213.393 287.749,213.347C287.716,213.401 287.7,213.485 287.7,213.6C287.7,214.489 287.713,215.821 287.74,217.598C287.766,219.375 287.779,220.708 287.779,221.596C287.779,221.864 287.724,221.998 287.615,221.998L285.514,221.998C285.396,221.998 285.338,221.88 285.338,221.642C285.338,220.815 285.359,219.567 285.402,217.897C285.444,216.227 285.465,214.975 285.465,214.14C285.465,213.259 285.446,211.942 285.408,210.188C285.369,208.434 285.35,207.121 285.35,206.248C285.35,206.079 285.429,205.995 285.587,205.995C285.822,205.995 286.111,205.964 286.455,205.903C286.536,205.888 286.696,205.838 286.935,205.754C287.137,205.685 287.297,205.65 287.415,205.65C287.463,205.65 287.538,205.78 287.639,206.041L289.905,211.911C290.107,212.44 290.413,213.213 290.822,214.232C290.923,214.469 291.01,214.588 291.083,214.588C291.135,214.588 291.162,214.289 291.162,213.692C291.162,212.888 291.138,211.678 291.092,210.062C291.045,208.446 291.022,207.232 291.022,206.42C291.022,206.136 291.065,205.995 291.15,205.995C291.393,205.995 291.759,205.976 292.249,205.937C292.739,205.899 293.105,205.88 293.348,205.88C293.425,205.88 293.463,205.999 293.463,206.236Z" style="fill-rule:nonzero;"/>
                <path d="M300.384,209.395C300.384,209.549 300.339,209.625 300.25,209.625C300.096,209.625 299.487,209.568 298.422,209.453C298.398,211.391 298.386,212.742 298.386,213.508C298.386,214.412 298.405,215.771 298.443,217.587C298.482,219.402 298.501,220.761 298.501,221.665C298.501,221.811 298.483,221.903 298.446,221.941C298.434,221.956 298.378,221.975 298.276,221.998C298.033,222.06 297.677,222.09 297.208,222.09C296.685,222.09 296.319,222.06 296.108,221.998C295.995,221.96 295.938,221.841 295.938,221.642C295.938,220.738 295.959,219.383 295.999,217.575C296.04,215.768 296.06,214.412 296.06,213.508C296.06,212.911 296.044,211.578 296.011,209.51C295.201,209.663 294.556,209.74 294.074,209.74C294.009,209.74 293.977,209.702 293.977,209.625C293.977,209.526 294.005,209.231 294.062,208.741C294.127,208.204 294.163,207.879 294.171,207.764C294.183,207.404 294.197,207.044 294.214,206.684C294.242,206.11 294.29,205.822 294.359,205.822C294.367,205.822 294.396,205.826 294.444,205.834C295.1,205.995 296.07,206.075 297.353,206.075C297.718,206.075 298.39,206.002 299.37,205.857C299.896,205.78 300.161,205.742 300.165,205.742C300.246,205.742 300.293,205.752 300.305,205.771C300.317,205.79 300.325,205.865 300.329,205.995C300.329,206.202 300.325,206.489 300.317,206.856C300.309,207.262 300.305,207.55 300.305,207.718C300.305,207.91 300.318,208.191 300.344,208.562C300.371,208.934 300.384,209.212 300.384,209.395Z" style="fill-rule:nonzero;"/>
            </g>
        </g>
    </g>
</svg>
