<?xml version="1.0" encoding="UTF-8" standalone="no"?>
<!DOCTYPE svg PUBLIC "-//W3C//DTD SVG 1.1//EN" "http://www.w3.org/Graphics/SVG/1.1/DTD/svg11.dtd">
<svg width="100%" height="100%" viewBox="0 0 50 50" version="1.1" xmlns="http://www.w3.org/2000/svg" xmlns:xlink="http://www.w3.org/1999/xlink" xml:space="preserve" xmlns:serif="http://www.serif.com/" style="fill-rule:evenodd;clip-rule:evenodd;stroke-linejoin:round;stroke-miterlimit:2;">
    <g transform="matrix(1,0,0,1,-428.728,-294.395)">
        <g id="logo-50" transform="matrix(1.02911,0,0,1.02911,295.244,141.358)">
            <g transform="matrix(0.88,0,0,0.88,-96.8,-62.84)">
                <g transform="matrix(1,0,0,1,1,0)">
                    <path d="M300.94,262.11C300.227,262.393 299.06,262.842 297.83,263.253C296.907,263.562 296.029,263.828 295.319,264.034C295.112,262.529 294.78,261.188 294.334,260.008C294.33,260 294.327,259.991 294.324,259.983C293.5,257.87 292.272,256.091 290.651,254.638C287.734,252.027 284.419,251.052 280.719,251.671C280.716,251.672 280.713,251.672 280.71,251.673C277.48,252.225 274.586,253.87 272.068,256.681C269.526,259.52 268.189,262.597 267.979,265.877C267.735,269.667 269.057,272.876 271.977,275.491C273.626,276.968 275.512,278.008 277.636,278.611C277.638,278.612 277.64,278.613 277.642,278.613C278.82,278.945 280.14,279.154 281.603,279.227C281.512,279.904 281.39,280.761 281.24,281.796C281.08,282.866 280.903,283.864 280.773,284.559C275.824,285.133 271.378,283.607 267.397,280.042C264.385,277.345 262.402,274.297 261.524,270.859C261.2,269.586 259.978,268.755 258.675,268.918C257.372,269.082 256.395,270.19 256.395,271.503L256.395,293C256.395,294.439 257.561,295.605 259,295.605L309,295.605C310.439,295.605 311.605,294.439 311.605,293L311.605,243C311.605,241.561 310.439,240.395 309,240.395L288.481,240.395C287.196,240.395 286.104,241.33 285.906,242.599C285.709,243.869 286.466,245.092 287.689,245.482C290,246.219 292.147,247.494 294.145,249.284C298.41,253.103 300.719,257.356 300.94,262.11ZM293.62,264.488L293.681,264.486L293.62,264.488Z" style="fill:white;"/>
                </g>
                <g transform="matrix(1,0,0,1,7,6)">
                    <path d="M277.015,245.511C278.272,245.164 279.078,243.941 278.903,242.65C278.728,241.358 277.625,240.395 276.321,240.395L259,240.395C257.561,240.395 256.395,241.561 256.395,243L256.395,260.867C256.395,262.184 257.378,263.295 258.686,263.453C259.994,263.612 261.215,262.769 261.53,261.49C262.344,258.185 264.088,255.087 266.702,252.168C269.695,248.826 273.122,246.588 277.015,245.511Z" style="fill:white;"/>
                </g>
            </g>
            <g transform="matrix(0.88,0,0,0.88,-96.8,-62.84)">
                <g transform="matrix(1,0,0,1,1,0)">
                    <path d="M288.481,243L309,243L309,293L259,293L259,271.503C260,275.42 262.228,278.911 265.659,281.983C270.393,286.222 275.709,287.921 281.609,287.08C282.296,286.968 282.751,286.788 282.973,286.54C283.126,286.369 283.407,284.915 283.817,282.178C284.202,279.53 284.396,277.956 284.398,277.454C284.395,277.144 284.317,276.92 284.161,276.781C284.084,276.711 283.44,276.666 282.229,276.644C280.781,276.606 279.487,276.426 278.348,276.105C276.609,275.611 275.065,274.759 273.715,273.55C271.433,271.507 270.388,269.005 270.579,266.044C270.753,263.319 271.897,260.778 274.009,258.419C276.094,256.091 278.474,254.698 281.149,254.241C284.043,253.757 286.631,254.536 288.913,256.579C290.232,257.761 291.226,259.211 291.897,260.929C292.328,262.071 292.63,263.39 292.801,264.885C292.943,266.131 293.053,266.789 293.131,266.859C293.317,267.026 293.528,267.102 293.763,267.089C294.251,267.107 295.882,266.652 298.656,265.724C301.43,264.797 302.95,264.186 303.214,263.891C303.45,263.627 303.566,263.185 303.561,262.566C303.471,256.92 300.912,251.846 295.884,247.343C293.595,245.293 291.128,243.844 288.481,243Z" style="fill:rgb(32,32,32);"/>
                </g>
                <g transform="matrix(1,0,0,1,7,6)">
                    <path d="M276.321,243C271.963,244.205 268.112,246.689 264.761,250.43C261.838,253.694 259.91,257.171 259,260.867L259,243L276.321,243Z" style="fill:rgb(32,32,32);"/>
                </g>
                <g transform="matrix(1,0,0,1,-26,-3)">
                    <circle cx="325" cy="283" r="8" style="fill:rgb(71,53,121);"/>
                </g>
            </g>
        </g>
    </g>
</svg>
